<mxfile host="app.diagrams.net" modified="2022-06-18T09:47:37.530Z" agent="5.0 (Macintosh; Intel Mac OS X 10_15_7) AppleWebKit/537.36 (KHTML, like Gecko) Chrome/102.0.0.0 Safari/537.36" etag="YechO1qkrGUWl56pR-0X" version="20.0.1" type="github">
  <diagram id="PXiq7DHxHrxyp9uKbBcg" name="第 1 页">
    <mxGraphModel dx="1063" dy="794" grid="1" gridSize="10" guides="1" tooltips="1" connect="1" arrows="1" fold="1" page="1" pageScale="1" pageWidth="1169" pageHeight="1654" math="0" shadow="0">
      <root>
        <mxCell id="0" />
        <mxCell id="1" parent="0" />
        <mxCell id="90XDjIpnk7VUT1DKq-jt-19" style="edgeStyle=orthogonalEdgeStyle;rounded=0;sketch=1;orthogonalLoop=1;jettySize=auto;html=1;fontSize=26;fontColor=#FFFFFF;strokeWidth=3;" edge="1" parent="1" source="90XDjIpnk7VUT1DKq-jt-7">
          <mxGeometry relative="1" as="geometry">
            <mxPoint x="530" y="385" as="targetPoint" />
          </mxGeometry>
        </mxCell>
        <mxCell id="90XDjIpnk7VUT1DKq-jt-7" value="" style="rounded=0;whiteSpace=wrap;html=1;fontSize=26;fontColor=#FFFFFF;strokeWidth=2;dashed=1;sketch=0;shadow=1;fillColor=none;" vertex="1" parent="1">
          <mxGeometry x="100" y="280" width="340" height="210" as="geometry" />
        </mxCell>
        <mxCell id="90XDjIpnk7VUT1DKq-jt-2" value="&lt;font color=&quot;#ffffff&quot; style=&quot;font-size: 26px;&quot;&gt;CPU&lt;/font&gt;" style="rounded=0;whiteSpace=wrap;html=1;fillColor=#76608a;fontColor=#ffffff;strokeColor=#432D57;" vertex="1" parent="1">
          <mxGeometry x="110" y="290" width="110" height="190" as="geometry" />
        </mxCell>
        <mxCell id="90XDjIpnk7VUT1DKq-jt-5" value="&lt;font color=&quot;#ffffff&quot;&gt;Address&lt;br&gt;Translation&lt;/font&gt;" style="rounded=0;whiteSpace=wrap;html=1;fontSize=26;fontColor=#000000;fillColor=#fa6800;strokeColor=#C73500;" vertex="1" parent="1">
          <mxGeometry x="230" y="290" width="200" height="90" as="geometry" />
        </mxCell>
        <mxCell id="90XDjIpnk7VUT1DKq-jt-6" value="&lt;font color=&quot;#ffffff&quot;&gt;TLB&lt;/font&gt;" style="rounded=0;whiteSpace=wrap;html=1;fontSize=26;fontColor=#000000;fillColor=#fa6800;strokeColor=#C73500;" vertex="1" parent="1">
          <mxGeometry x="230" y="390" width="200" height="90" as="geometry" />
        </mxCell>
        <mxCell id="90XDjIpnk7VUT1DKq-jt-8" value="" style="endArrow=none;html=1;rounded=0;fontSize=26;fontColor=#FFFFFF;strokeWidth=3;sketch=1;" edge="1" parent="1">
          <mxGeometry width="50" height="50" relative="1" as="geometry">
            <mxPoint x="536" y="532" as="sourcePoint" />
            <mxPoint x="536" y="192" as="targetPoint" />
          </mxGeometry>
        </mxCell>
        <mxCell id="90XDjIpnk7VUT1DKq-jt-21" style="edgeStyle=orthogonalEdgeStyle;rounded=0;sketch=1;orthogonalLoop=1;jettySize=auto;html=1;fontSize=26;fontColor=#FFFFFF;strokeWidth=3;" edge="1" parent="1" source="90XDjIpnk7VUT1DKq-jt-9">
          <mxGeometry relative="1" as="geometry">
            <mxPoint x="540" y="310" as="targetPoint" />
          </mxGeometry>
        </mxCell>
        <mxCell id="90XDjIpnk7VUT1DKq-jt-9" value="Memory" style="shape=table;startSize=30;container=1;collapsible=0;childLayout=tableLayout;fixedRows=1;rowLines=0;fontStyle=1;shadow=1;sketch=0;fontSize=26;fontColor=#ffffff;strokeWidth=2;fillColor=#6d8764;strokeColor=#000000;" vertex="1" parent="1">
          <mxGeometry x="700" y="250" width="290" height="120" as="geometry" />
        </mxCell>
        <mxCell id="90XDjIpnk7VUT1DKq-jt-10" value="" style="shape=tableRow;horizontal=0;startSize=0;swimlaneHead=0;swimlaneBody=0;top=0;left=0;bottom=0;right=0;collapsible=0;dropTarget=0;fillColor=#6d8764;points=[[0,0.5],[1,0.5]];portConstraint=eastwest;shadow=1;dashed=1;sketch=0;fontSize=26;fontColor=#ffffff;strokeWidth=2;strokeColor=#3A5431;" vertex="1" parent="90XDjIpnk7VUT1DKq-jt-9">
          <mxGeometry y="30" width="290" height="30" as="geometry" />
        </mxCell>
        <mxCell id="90XDjIpnk7VUT1DKq-jt-11" value="1" style="shape=partialRectangle;html=1;whiteSpace=wrap;connectable=0;fillColor=#6d8764;top=0;left=0;bottom=0;right=0;overflow=hidden;pointerEvents=1;shadow=1;dashed=1;sketch=0;fontSize=26;fontColor=#ffffff;strokeWidth=2;strokeColor=#3A5431;" vertex="1" parent="90XDjIpnk7VUT1DKq-jt-10">
          <mxGeometry width="64" height="30" as="geometry">
            <mxRectangle width="64" height="30" as="alternateBounds" />
          </mxGeometry>
        </mxCell>
        <mxCell id="90XDjIpnk7VUT1DKq-jt-12" value="address 1" style="shape=partialRectangle;html=1;whiteSpace=wrap;connectable=0;fillColor=#6d8764;top=0;left=0;bottom=0;right=0;align=left;spacingLeft=6;overflow=hidden;shadow=1;dashed=1;sketch=0;fontSize=26;fontColor=#ffffff;strokeWidth=2;strokeColor=#3A5431;" vertex="1" parent="90XDjIpnk7VUT1DKq-jt-10">
          <mxGeometry x="64" width="226" height="30" as="geometry">
            <mxRectangle width="226" height="30" as="alternateBounds" />
          </mxGeometry>
        </mxCell>
        <mxCell id="90XDjIpnk7VUT1DKq-jt-13" value="" style="shape=tableRow;horizontal=0;startSize=0;swimlaneHead=0;swimlaneBody=0;top=0;left=0;bottom=0;right=0;collapsible=0;dropTarget=0;fillColor=#6d8764;points=[[0,0.5],[1,0.5]];portConstraint=eastwest;shadow=1;dashed=1;sketch=0;fontSize=26;fontColor=#ffffff;strokeWidth=2;strokeColor=#3A5431;" vertex="1" parent="90XDjIpnk7VUT1DKq-jt-9">
          <mxGeometry y="60" width="290" height="30" as="geometry" />
        </mxCell>
        <mxCell id="90XDjIpnk7VUT1DKq-jt-14" value="2" style="shape=partialRectangle;html=1;whiteSpace=wrap;connectable=0;fillColor=#6d8764;top=0;left=0;bottom=0;right=0;overflow=hidden;shadow=1;dashed=1;sketch=0;fontSize=26;fontColor=#ffffff;strokeWidth=2;strokeColor=#3A5431;" vertex="1" parent="90XDjIpnk7VUT1DKq-jt-13">
          <mxGeometry width="64" height="30" as="geometry">
            <mxRectangle width="64" height="30" as="alternateBounds" />
          </mxGeometry>
        </mxCell>
        <mxCell id="90XDjIpnk7VUT1DKq-jt-15" value="address 2" style="shape=partialRectangle;html=1;whiteSpace=wrap;connectable=0;fillColor=#6d8764;top=0;left=0;bottom=0;right=0;align=left;spacingLeft=6;overflow=hidden;shadow=1;dashed=1;sketch=0;fontSize=26;fontColor=#ffffff;strokeWidth=2;strokeColor=#3A5431;" vertex="1" parent="90XDjIpnk7VUT1DKq-jt-13">
          <mxGeometry x="64" width="226" height="30" as="geometry">
            <mxRectangle width="226" height="30" as="alternateBounds" />
          </mxGeometry>
        </mxCell>
        <mxCell id="90XDjIpnk7VUT1DKq-jt-16" value="" style="shape=tableRow;horizontal=0;startSize=0;swimlaneHead=0;swimlaneBody=0;top=0;left=0;bottom=0;right=0;collapsible=0;dropTarget=0;fillColor=#6d8764;points=[[0,0.5],[1,0.5]];portConstraint=eastwest;shadow=1;dashed=1;sketch=0;fontSize=26;fontColor=#ffffff;strokeWidth=2;strokeColor=#3A5431;" vertex="1" parent="90XDjIpnk7VUT1DKq-jt-9">
          <mxGeometry y="90" width="290" height="30" as="geometry" />
        </mxCell>
        <mxCell id="90XDjIpnk7VUT1DKq-jt-17" value="3" style="shape=partialRectangle;html=1;whiteSpace=wrap;connectable=0;fillColor=#6d8764;top=0;left=0;bottom=0;right=0;overflow=hidden;shadow=1;dashed=1;sketch=0;fontSize=26;fontColor=#ffffff;strokeWidth=2;strokeColor=#3A5431;" vertex="1" parent="90XDjIpnk7VUT1DKq-jt-16">
          <mxGeometry width="64" height="30" as="geometry">
            <mxRectangle width="64" height="30" as="alternateBounds" />
          </mxGeometry>
        </mxCell>
        <mxCell id="90XDjIpnk7VUT1DKq-jt-18" value="address 3" style="shape=partialRectangle;html=1;whiteSpace=wrap;connectable=0;fillColor=#6d8764;top=0;left=0;bottom=0;right=0;align=left;spacingLeft=6;overflow=hidden;shadow=1;dashed=1;sketch=0;fontSize=26;fontColor=#ffffff;strokeWidth=2;strokeColor=#3A5431;" vertex="1" parent="90XDjIpnk7VUT1DKq-jt-16">
          <mxGeometry x="64" width="226" height="30" as="geometry">
            <mxRectangle width="226" height="30" as="alternateBounds" />
          </mxGeometry>
        </mxCell>
        <mxCell id="90XDjIpnk7VUT1DKq-jt-22" value="&lt;font color=&quot;#000000&quot;&gt;总线&lt;/font&gt;" style="text;strokeColor=none;fillColor=none;html=1;fontSize=24;fontStyle=1;verticalAlign=middle;align=center;shadow=1;sketch=0;fontColor=#FFFFFF;" vertex="1" parent="1">
          <mxGeometry x="485" y="540" width="100" height="40" as="geometry" />
        </mxCell>
      </root>
    </mxGraphModel>
  </diagram>
</mxfile>
